<?xml version="1.0" ?><!DOCTYPE svg  PUBLIC '-//W3C//DTD SVG 1.1//EN'  'http://www.w3.org/Graphics/SVG/1.1/DTD/svg11.dtd'><svg id="Lager_1" style="enable-background:new -169 292.9 256 256;" version="1.1" viewBox="-169 292.9 256 256" xml:space="preserve" xmlns="http://www.w3.org/2000/svg" xmlns:xlink="http://www.w3.org/1999/xlink"><style type="text/css">
	.st0{fill:#FFFFFF;}
	.st1{fill:#F1F1F1;}
	.st2{fill:#8C694D;}
	.st3{opacity:0.1;enable-background:new    ;}
	.st4{fill:#A98461;}
</style><g><g><path class="st0" d="M-147.9,484.7l105.1,60.7c1.1,0.6,2.5,0.6,3.6,0l105.1-60.7c1.1-0.6,1.8-1.8,1.8-3.1V360.2    c0-1.3-0.7-2.5-1.8-3.1l-105.1-60.7c-1.1-0.6-2.5-0.6-3.6,0l-105.1,60.7c-1.1,0.6-1.8,1.8-1.8,3.1v121.4    C-149.7,482.9-149,484.1-147.9,484.7z"/></g><g><path class="st1" d="M28.5,500.6l-31.3-5.1l-1.6-2c-38.4,5.4-72.5,0.3-73.3,0l-2.2,2.1l-30.7,5c-2.2,0.4-4.3,1.1-6.3,2.1l74,42.7    c1.1,0.6,2.5,0.6,3.6,0l65.9-38l8.2-4.7C32.9,501.7,30.8,500.9,28.5,500.6z"/><path class="st2" d="M-34.3,532.7l28.7-35.5c-1-0.1-2.1-0.1-3-0.1c-3.4-0.2-6.4-2.2-7.8-5.2c-1.8-3.9-3.4-8.2-3.4-12.6    c0-19.3,29.5-34.9-20-35.4l0,0c-0.4,0-0.8,0-1.1,0c-0.4,0-0.7,0-1.1,0l0,0c-49.5,0.5-20,16.1-20,35.4c0,4.4-1.6,8.7-3.4,12.6    c-1.4,3.1-4.4,5.1-7.8,5.2c-1,0-2.1,0.1-3.2,0.1l28.7,35.5C-44.1,537.1-37.9,537.1-34.3,532.7z"/></g><path class="st3" d="M-62.3,476c7.1,5.4,14.5,11.8,21.4,11.8s14.3-6.4,21.4-11.7c0.7-4.5,2.7-8.7,4.6-12.5   c-8.3,7-17.5,11.1-25.9,11.1c-8.5,0-17.7-4.2-26.1-11.4C-65.1,467.3-63,471.5-62.3,476z"/><path class="st4" d="M6.8,409.5c0,35.9-26.5,67.9-47.8,67.6c-21.2-0.3-47.5-33.1-47.8-68.1c-0.4-35.9,17.1-57.7,47.8-57.7   S6.8,373.6,6.8,409.5z"/><path d="M25.9,395.8c0-3.3-1.4-6.2-3.6-8.1c-0.2-0.2-0.2-0.4,0-0.6c2-2.3,3.2-5.4,3.2-8.8c0-5.8-3.5-10.6-8.2-12.2   c-0.2-0.1-0.3-0.3-0.3-0.5c0.3-1.1,0.5-2.3,0.5-3.6c0-7.1-5.2-12.8-11.7-12.8c-0.6,0-1.1,0.1-1.7,0.1v-0.1c0-6.1-4.5-11-10-11   c-1,0-1.9,0.2-2.8,0.5c-0.2,0.1-0.5,0-0.5-0.3c-1.3-4.1-4.8-7-8.9-7c-1.8,0-3.5,0.6-5,1.6c-0.2,0.1-0.5,0.1-0.6-0.1   c-1.4-2.5-3.8-4.1-6.6-4.1c-1.8,0-3.5,0.7-4.8,1.8c-0.2,0.2-0.5,0.1-0.6-0.1c-1.2-1.5-3-2.5-5-2.5h-0.1h-0.1c-2,0-3.8,1-5,2.5   c-0.2,0.2-0.4,0.2-0.6,0.1c-1.3-1.1-3-1.8-4.8-1.8c-2.8,0-5.3,1.7-6.6,4.1c-0.1,0.2-0.4,0.3-0.6,0.1c-1.4-1-3.2-1.6-5-1.6   c-4.2,0-7.7,2.9-8.9,7c-0.1,0.2-0.3,0.4-0.5,0.3c-0.9-0.3-1.9-0.5-2.8-0.5c-5.5,0-10,4.9-10,11v0.1c-0.6-0.1-1.1-0.1-1.7-0.1   c-6.5,0-11.7,5.7-11.7,12.8c0,1.2,0.2,2.4,0.5,3.6c0.1,0.2-0.1,0.4-0.3,0.5c-4.8,1.6-8.2,6.5-8.2,12.2c0,3.4,1.2,6.5,3.2,8.8   c0.2,0.2,0.1,0.4,0,0.6c-2.2,1.9-3.6,4.8-3.6,8.1s1.4,6.3,3.7,8.2c0.2,0.1,0.2,0.4,0.1,0.6c-1,1.5-1.6,3.3-1.6,5.2   c0,3.2,1.5,5.9,3.8,7.5c0.2,0.1,0.2,0.4,0.1,0.6c-0.7,1.2-1.1,2.6-1.1,4.1c0,3,1.6,5.6,3.9,6.9c0.2,0.1,0.3,0.3,0.2,0.6   c-0.5,1-0.7,2.2-0.7,3.4c0,4.2,3.1,7.7,7,7.7h0.1c-0.3,1.3-0.2,2.7,0.5,4.2c0.9,1.9,2.7,3.3,4.6,3.5c1.9,0.2,3.6-0.6,4.7-1.9   c0,0.3-0.1,0.6-0.1,0.9c0,3.3,2.4,6,5.5,6c1.2,0,2.4-0.4,3.3-1.2c0.1-0.1,0.2-0.3,0.1-0.5c-0.5-1.2-1.3-2.2-2.2-2.9   c-0.2-0.2-0.2-0.4-0.1-0.6c0.9-1.2,1.5-2.7,1.5-4.4c0-3-1.8-5.5-4.2-6.3c-0.3-0.1-0.3-0.4-0.2-0.6c0.5-1,0.9-2.2,0.9-3.4   c0-2.3-1.1-4.4-2.8-5.6c-0.2-0.2-0.2-0.5,0-0.7c1.7-1.2,2.8-3.2,2.8-5.6c0-2.5-1.3-4.7-3.2-5.8c-0.2-0.1-0.3-0.5-0.1-0.7   c1.2-1.1,2-2.8,2-4.7c0-1.2-0.3-2.3-0.8-3.2c-0.1-0.2,0-0.5,0.2-0.6c1.8-1,3-3.1,3-5.4c0-0.4,0-0.8-0.1-1.1h0.1   c3.1,0,5.6-2.7,5.6-6.1c0-0.3,0-0.6-0.1-1c0.9,0.5,1.8,0.9,2.9,0.9c3,0,5.4-2.4,5.9-5.5c0-0.3,0.3-0.5,0.6-0.4   c0.7,0.3,1.4,0.4,2.2,0.4c2.6,0,4.9-1.6,6.1-4c0.1-0.2,0.4-0.3,0.6-0.2c0.9,0.5,1.9,0.8,2.9,0.8c1.6,0,3.1-0.7,4.1-1.9   c0.2-0.2,0.5-0.2,0.6,0c1,1,2.3,1.7,3.7,1.8c0,0,0,0,0.1,0s0.2,0,0.4,0h0.1h0.1c0.1,0,0.3,0,0.4,0c0,0,0,0,0.1,0   c1.4-0.1,2.7-0.8,3.7-1.8c0.2-0.2,0.5-0.2,0.6,0c1.1,1.2,2.5,1.9,4.1,1.9c1.1,0,2.1-0.3,2.9-0.8c0.2-0.1,0.5-0.1,0.6,0.2   c1.2,2.4,3.4,4,6.1,4c0.8,0,1.5-0.1,2.2-0.4c0.3-0.1,0.5,0.1,0.6,0.4c0.4,3.1,2.9,5.5,5.9,5.5c1.1,0,2.1-0.3,2.9-0.9   c0,0.3-0.1,0.6-0.1,1c0,3.4,2.5,6.1,5.6,6.1h0.1c-0.1,0.4-0.1,0.7-0.1,1.1c0,2.4,1.2,4.4,3,5.4c0.2,0.1,0.3,0.4,0.2,0.6   c-0.5,0.9-0.8,2-0.8,3.2c0,1.9,0.8,3.5,2,4.7c0.2,0.2,0.2,0.5-0.1,0.7c-1.9,1.1-3.2,3.3-3.2,5.8c0,2.3,1.1,4.4,2.8,5.6   c0.2,0.2,0.2,0.5,0,0.7c-1.7,1.2-2.8,3.2-2.8,5.6c0,1.2,0.3,2.4,0.9,3.4c0.1,0.2,0,0.5-0.2,0.6c-2.4,0.9-4.2,3.4-4.2,6.3   c0,1.7,0.6,3.2,1.5,4.4c0.2,0.2,0.1,0.5-0.1,0.6c-0.9,0.7-1.7,1.7-2.2,2.8c-0.1,0.2,0,0.4,0.1,0.5c0.9,0.8,2.1,1.3,3.4,1.3   c3,0,5.5-2.7,5.5-6c0-0.3,0-0.6-0.1-0.9c1.2,1.3,2.9,2.1,4.7,1.9c2-0.2,3.7-1.6,4.6-3.5c0.7-1.5,0.8-2.9,0.5-4.2h0.1   c3.9,0,7-3.4,7-7.7c0-1.2-0.3-2.3-0.7-3.4c-0.1-0.2,0-0.4,0.2-0.6c2.3-1.3,3.9-3.9,3.9-6.9c0-1.5-0.4-2.9-1.1-4.1   c-0.1-0.2-0.1-0.4,0.1-0.6c2.3-1.5,3.8-4.3,3.8-7.5c0-2-0.6-3.8-1.6-5.2c-0.1-0.2-0.1-0.4,0.1-0.6C24.5,402,25.9,399.1,25.9,395.8z   "/></g></svg>