<?xml version="1.0" encoding="utf-8"?>
<!-- Generator: Adobe Illustrator 24.0.1, SVG Export Plug-In . SVG Version: 6.00 Build 0)  -->
<svg version="1.1" id="Layer_2" xmlns="http://www.w3.org/2000/svg" xmlns:xlink="http://www.w3.org/1999/xlink" x="0px" y="0px"
	 viewBox="0 0 2500 1139" style="enable-background:new 0 0 2500 1139;" xml:space="preserve">
<style type="text/css">
	.st0{fill:#FFFFFF;}
</style>
<g id="XMLID_56_">
	<g id="XMLID_1_">
		<path id="XMLID_69_" class="st0" d="M1950.8,204.4h84.6v565.8h-84.6V204.4z"/>
		<path id="XMLID_87_" class="st0" d="M873.8,397c-106.5,0-193.3,81-193.3,192.5c0,110.8,86.8,192.5,193.3,192.5
			s193.3-81.7,193.3-192.5C1067.1,477.8,980.3,397,873.8,397L873.8,397z M873.8,706.1c-58.3,0-108.6-48.1-108.6-116.6
			c0-69.2,50.3-116.6,108.6-116.6s108.6,47.4,108.6,116.6C982.4,658,932.1,706.1,873.8,706.1z"/>
		<path id="XMLID_88_" class="st0" d="M372.1,456v81.7h195.4c-5.8,45.9-21.1,79.4-44.5,102.8c-28.5,28.5-73,59.8-150.9,59.8
			c-120.3,0-214.3-97-214.3-217.3s94-217.2,214.3-217.2c64.9,0,112.3,25.6,147.3,58.3l57.6-57.6c-48.9-46.7-113.7-82.3-204.9-82.3
			c-164.8,0-303.3,134.2-303.3,299s138.6,299,303.3,299c89,0,156-29.2,208.5-83.9c54-54,70.7-129.7,70.7-191.1
			c0-18.9-1.5-36.5-4.4-51H372.1V456L372.1,456z"/>
		<path id="XMLID_91_" class="st0" d="M2267.2,706.1c-43,0-73.6-19.6-93.4-58.3l257.4-106.5l-8.7-21.8
			c-16-43-64.9-122.6-164.8-122.6c-99.2,0-181.6,78.1-181.6,192.5c0,107.9,81.7,192.5,191.1,192.5c88.3,0,139.3-54,160.4-85.3
			l-65.6-43.8C2340.2,684.9,2310.3,706.1,2267.2,706.1L2267.2,706.1z M2260.7,471.3c33.6,0,62,16.7,71.4,40.9l-172,71.4
			C2157.9,509.2,2217.6,471.3,2260.7,471.3L2260.7,471.3z"/>
		<path id="XMLID_94_" class="st0" d="M1812.2,440h-2.9c-18.9-22.7-55.4-43-101.4-43c-96.3,0-184.5,84.6-184.5,193.3
			c0,107.9,88.3,191.8,184.5,191.8c45.9,0,82.3-20.4,101.4-43.8h2.9V766c0,73.6-39.4,113-102.8,113c-51.8,0-83.9-37.2-97-68.5
			l-73.6,30.7c21.1,51,77.2,113.7,170.6,113.7c99.2,0,183.1-58.3,183.1-200.5V408.6h-80.3V440z M1715.2,706.1
			c-58.3,0-107.2-48.9-107.2-115.9c0-67.8,48.9-117.4,107.2-117.4c57.6,0,102.8,49.6,102.8,117.4
			C1818,657.3,1772.8,706.1,1715.2,706.1z"/>
		<path id="XMLID_97_" class="st0" d="M1295.2,397c-106.5,0-193.3,81-193.3,192.5c0,110.8,86.8,192.5,193.3,192.5
			s193.3-81.7,193.3-192.5C1488.5,477.8,1401.7,397,1295.2,397L1295.2,397z M1295.2,706.1c-58.3,0-108.6-48.1-108.6-116.6
			c0-69.2,50.3-116.6,108.6-116.6c58.3,0,108.6,47.4,108.6,116.6C1403.9,658,1353.6,706.1,1295.2,706.1z"/>
	</g>
</g>
</svg>
